<?xml version="1.0" encoding="utf-8"?>
<!-- Generator: Adobe Illustrator 22.0.0, SVG Export Plug-In . SVG Version: 6.00 Build 0)  -->
<svg version="1.1" id="Layer_1" xmlns="http://www.w3.org/2000/svg" xmlns:xlink="http://www.w3.org/1999/xlink" x="0px" y="0px"
	 viewBox="0 0 520 512" style="enable-background:new 0 0 520 512;" xml:space="preserve">
<style type="text/css">
	.st0{fill:#FF64D0;}
	.st1{fill:#BC4B9F;}
	.st2{fill:#FFC09F;}
	.st3{fill:#FFFFFF;}
	.st4{fill:#B1423A;}
	.st5{fill:#F4B3EE;}
</style>
<g id="Layer_5">
</g>
<g id="Layer_4">
	<path class="st0" d="M391,425.8c0,25-57.5,45.3-129.6,45.3s-130.6-20.3-130.6-45.3s58.5-45.3,130.6-45.3S391,400.8,391,425.8z"/>
	<g>
		<path class="st1" d="M285.3,470.2c0-8.7,0-17.5,0-23.9c0-15.3,10.8-20,10.8-25.7c0-9.8-19.6,0.9-25.7,7
			c-9.2,9.3-8.2,12.9-7.9,28.4c0.1,4,0.1,9.3,0.1,14.9C270.2,471,277.9,470.7,285.3,470.2z"/>
		<path class="st1" d="M225.4,469.3c0-13.2-0.1-30.9-0.1-37.9c0-13.4-19-21-28.1-21c-4.6,0-10.4,0.2-10.4,2.7
			c0,6.2,17.4,9.8,17.4,22.7c0,7.1-0.1,21.3-0.2,30.7C210.8,467.6,217.9,468.5,225.4,469.3z"/>
		<path class="st1" d="M314.4,435.2c0.2-12.2,18-18,17.3-21.9s-14.9-3.3-21.6-1c-18.9,6.6-17,22.3-17,22.3l-0.5,35
			c7.7-0.7,15-1.5,22.1-2.6C314.6,445.7,314.3,441.6,314.4,435.2z"/>
		<path class="st1" d="M252.7,435.1c-7.6-16.8-30.4-22.5-30.4-14.9c0,5.1,4.6,3.5,7.8,15c1.3,4.6,1.9,19.9,2.3,34.6
			c7.8,0.6,15.9,1,24.2,1.1C256.3,456.4,255.4,441.2,252.7,435.1z"/>
	</g>
	<path class="st0" d="M112.3,310.1c-8.1,0,0-12.6,0-18.3C112.5,297.6,120.4,310.1,112.3,310.1z"/>
</g>
<g id="mainBody">
	<g id="XMLID_1_">
		<g>
			<path class="st2" d="M310.7,168.5c40.3,0,50.5,28.5,50.5,50.5c0,30-15.1,51.7-52.6,57.3c-4.6,0.7-9.6,1.1-14.9,1.3
				c-22.7,0.8-45.3,0.7-64,0c-2.7-0.1-5.4-0.3-8-0.5c-39.2-3.4-67-21.2-67-60.8c0-15,10.2-47.8,51.2-47.8c4.1,0,30.6,2.5,56.2,2.5
				C284.7,171,307.7,168.5,310.7,168.5z"/>
			<path d="M490.6,234c0.8,0.2,1.4,0.9,1.2,1.8c-0.1,0.7-0.8,1.2-1.5,1.2c-0.1,0-0.2,0-0.3,0c-20.5-3.8-50.2-7.9-101-7.5
				c-0.9,3-1.9,5.8-3,8.4c17.3,0.6,64.8,2.4,103.6,14.3c0.8,0.2,1.2,1.1,1,1.9c-0.2,0.6-0.8,1.1-1.4,1.1c-0.1,0-0.3,0-0.4-0.1
				c-39.3-12-87.8-13.7-104-14.2c-12.5,27.5-36.8,39.6-74.8,45.3l-1.4-9.9c37.6-5.6,52.6-27.4,52.6-57.3c0-22-10.2-50.5-50.5-50.5
				c-2.9,0-25.9,2.5-48.7,2.5c-25.6,0-52.1-2.5-56.2-2.5c-41,0-51.2,32.8-51.2,47.8c0,39.7,27.8,57.4,67,60.8l-1.1,11
				c-46.6-4.7-74.3-21.1-88.7-47.3c-49.5,1.2-77.7,8.2-98.3,13.4c-1.5,0.4-3,0.7-4.4,1.1c-0.1,0-0.2,0-0.4,0c-0.7,0-1.3-0.5-1.5-1.1
				c-0.2-0.8,0.3-1.6,1.1-1.8c1.4-0.4,2.9-0.7,4.4-1.1c20.6-5.1,48.5-12.1,97.4-13.4c-1.3-2.7-2.6-5.5-3.7-8.4
				c-19-0.2-77.7,2.5-97.8,7.5c-0.1,0-0.2,0-0.4,0c-0.7,0-1.3-0.5-1.5-1.1c-0.2-0.8,0.3-1.6,1.1-1.8c19.9-4.9,77.2-7.6,97.4-7.6
				c-4.6-13.4-6.6-28.8-6.6-46c0-30.5,9.5-42,22.3-58.2c-9.8-34.8,3.5-58.5,3.5-58.5s20.5-4.3,59.3,23.5c21-9,77-9.8,103.5-2
				c16.3-10.8,46-26,58-21.7c3.3,5.2,10.3,20.5,4.3,54c4.1,7.4,25.3,23,25.3,67.3c-0.3,16.3-2,30.1-5.2,41.8
				C440.4,226.1,470.1,230.3,490.6,234z"/>
			<path d="M314.4,385.8c0.2,12.2,18,18,17.3,21.9s-14.9,3.3-21.6,1c-18.9-6.6-17-22.3-17-22.3l-0.6-43.1c0,0,1.3-23.2-7.3-23.2
				c0,4.7,0,53.9,0,70.6c0,15.3,10.8,20,10.8,25.7c0,9.8-19.6-0.9-25.7-7c-9.2-9.3-8.2-28.9-7.9-44.4c0.2-15-0.1-47.8-0.1-47.8
				l-6.3,0.1c0,0,2.6,71.6-3.3,84.6c-7.6,16.7-30.5,22.5-30.5,14.9c0-5.1,5.6-3.5,8.8-15c2.7-9.8,1.8-82.8,1.8-82.8s-7.3,4.3-7.3,18
				c0,6.3-0.2,42-0.2,52.6c0,13.4-19,21-28.1,21c-4.6,0-10.4-0.2-10.4-2.7c0-6.2,17.4-9.8,17.4-22.7c0-11.2-0.2-39.9-0.2-39.9
				s-8.8,1.5-21.3,1.5c-31.5,0-41.5-20.1-46.2-31.3c-6.2-14.7-14.2-21.5-22.7-27c-5.2-3.4-6.4-7.4-0.4-8.5
				c27.9-5.3,35,31.6,53.6,37.5c13.3,4.2,30.4,2.4,38.9-3.1c1.1-11.3,9.2-21,16-26.1c-0.4,0-0.9-0.1-1.3-0.1l1.1-11
				c2.6,0.2,5.3,0.4,8,0.5c18.7,0.7,41.3,0.8,64,0c5.3-0.2,10.3-0.6,14.9-1.3l1.4,9.9c-4.7,0.7-9.5,1.3-14.6,1.8
				c15.1,9.5,19.4,21.4,19.4,53.7S314.3,378.3,314.4,385.8z"/>
		</g>
	</g>
</g>
<g id="Layer_6">
	<path class="st3" d="M223.7,218.8c0-17.6-9.6-31.9-21.4-31.9c-11.8,0-21.4,14.3-21.4,31.9s9.6,29.9,21.4,29.9
		C214.1,248.7,223.7,236.4,223.7,218.8z"/>
	<path class="st3" d="M339.4,218.8c0-17.6-9.6-31.9-21.4-31.9s-21.4,14.3-21.4,31.9s9.6,29.9,21.4,29.9S339.4,236.4,339.4,218.8z"/>
	<g>
		<path class="st4" d="M258.6,267.8c-7.7,0-13.3-6.6-13.3-10c0-0.8,0.7-1.5,1.5-1.5s1.5,0.7,1.5,1.5c0,1.7,4.3,7,10.3,7
			c5.2,0,9.1-3.7,9.1-7c0-0.8,0.7-1.5,1.5-1.5s1.5,0.7,1.5,1.5C270.7,262.6,265.7,267.8,258.6,267.8z"/>
	</g>
	
		<ellipse transform="matrix(0.1602 -0.9871 0.9871 0.1602 -25.2223 461.1547)" class="st4" cx="258.4" cy="245.4" rx="5.2" ry="5.2"/>
	<ellipse class="st4" cx="202.3" cy="218.8" rx="14.1" ry="20.7"/>
	<ellipse class="st4" cx="318" cy="218.8" rx="14.1" ry="20.7"/>
</g>
<g id="Suckers">
	<ellipse class="st5" cx="122.5" cy="283.8" rx="3.4" ry="2.3"/>
	<ellipse class="st5" cx="133" cy="289.5" rx="3.4" ry="2.3"/>
	<ellipse class="st5" cx="139.4" cy="297.1" rx="3.4" ry="2.3"/>
	<ellipse class="st5" cx="145" cy="305.8" rx="3.4" ry="2.3"/>
	<ellipse class="st5" cx="151.5" cy="313.9" rx="3.4" ry="2.3"/>
	<ellipse class="st5" cx="160.1" cy="320.8" rx="3.4" ry="2.3"/>
	<ellipse class="st5" cx="172.3" cy="325.3" rx="3.4" ry="2.3"/>
	<ellipse class="st5" cx="184.4" cy="325.3" rx="3.4" ry="2.3"/>
	<ellipse class="st5" cx="196.6" cy="323.4" rx="3.4" ry="2.3"/>
</g>
</svg>
