<?xml version="1.0" encoding="utf-8"?>
<!-- Generator: Adobe Illustrator 22.0.0, SVG Export Plug-In . SVG Version: 6.00 Build 0)  -->
<svg version="1.1" id="Layer_1" xmlns="http://www.w3.org/2000/svg" xmlns:xlink="http://www.w3.org/1999/xlink" x="0px" y="0px"
	 viewBox="0 0 299 491" style="enable-background:new 0 0 299 491;" xml:space="preserve">
<style type="text/css">
	.st0{opacity:0.6;}
	.st1{fill:#F21C54;}
	.st2{opacity:0.6;fill:#F21C54;}
</style>
<g class="st0">
	<path class="st1" d="M25.9,292.7c-7,0-13-2.2-17.3-6.4l-0.4-0.3l4.4-19.1c0.4-1.8,2-3.1,3.9-3.1h10.6c1.9,0,3.5,1.3,3.9,3.2
		l5.3,24.3l-0.8,0.2C35.3,291.5,31.3,292.7,25.9,292.7C26,292.7,26,292.7,25.9,292.7z M10.2,285.2c8.4,7.8,20.7,5.4,23.9,4.5
		l-4.9-22.6c-0.2-1-1.1-1.7-2.1-1.7H16.5c-1,0-1.9,0.7-2.1,1.7L10.2,285.2L10.2,285.2z"/>
	<path class="st2" d="M23.9,290.8h-4.3c-2.6,0-4.6-2-4.6-4.5v-22c0-2.5,2-4.5,4.6-4.5h4.3c2.6,0,4.6,2,4.6,4.5v22
		C28.5,288.8,26.5,290.8,23.9,290.8z M19.6,261.6c-1.6,0-2.8,1.2-2.8,2.8v21.9c0,1.5,1.3,2.8,2.8,2.8h4.3c1.6,0,2.8-1.2,2.8-2.8v-22
		c0-1.5-1.3-2.8-2.8-2.8L19.6,261.6L19.6,261.6z M278.5,292.7c-7,0-13-2.2-17.3-6.4l-0.4-0.3l4.4-19.1c0.4-1.8,2-3.1,3.9-3.1h10.6
		c1.9,0,3.5,1.3,3.9,3.2l5.3,24.3l-0.8,0.2C287.8,291.5,283.9,292.7,278.5,292.7C278.6,292.7,278.5,292.7,278.5,292.7L278.5,292.7z
		 M262.8,285.2c8.4,7.8,20.7,5.4,23.9,4.5l-4.9-22.6c-0.2-1-1.1-1.7-2.1-1.7H269c-1,0-1.9,0.7-2.1,1.7L262.8,285.2L262.8,285.2z
		 M0,0 M0,0 M0,0 M0,0"/>
	<path class="st1" d="M36.3,355.6H21.9c-8.6,0-15.6-6.7-15.6-15c0-8.3,7-15,15.6-15h14.4v1.7H21.9c-7.6,0-13.8,5.9-13.8,13.3
		s6.2,13.3,13.8,13.3h14.4V355.6z M59.5,430.1H45.1c-8.6,0-15.6-6.7-15.6-15c0-8.3,7-15,15.6-15h14.4v1.7H45.1
		c-7.6,0-13.8,5.9-13.8,13.3s6.2,13.3,13.8,13.3h14.4C59.5,428.4,59.5,430.1,59.5,430.1z"/>
	<path class="st1" d="M83.7,433H45.9c-8.5,0-15.4-6.7-15.4-15s6.9-15,15.5-15h14.2v1.7H45.9c-7.5,0-13.7,5.9-13.7,13.3
		c0,7.3,6.1,13.3,13.7,13.3h37.8L83.7,433C83.7,433,83.7,433,83.7,433z"/>
	<path class="st1" d="M148.6,453.3h-3v0c-36.4-0.6-65.1-12.6-85.4-35.5c-22.2-25.1-30.2-58.9-33-82.9c-3-26-0.8-46.3-0.8-46.5
		l0.1-0.8H52l93.6-4.3V283l1.9,0.1l1.9-0.1v0.2l93.7,4.3h25.4l0.1,0.8c0,0.2,2.2,20.5-0.8,46.5c-2.8,24-10.8,57.9-33,82.9
		c-20.3,23-49.1,34.9-85.4,35.5L148.6,453.3z M147.5,451.6h1c36.2-0.4,64.8-12.2,85-35c12.1-13.7,27.5-38.9,32.6-81.9
		c2.7-22.9,1.3-41.4,0.9-45.4h-23.8l-95.4-4.4h-0.3l-0.8,0l-94.5,4.4H28.2c-0.4,4-1.8,22.5,0.9,45.4c2.8,23.7,10.7,57.2,32.6,81.9
		c20.1,22.8,48.8,34.6,85,35H147.5L147.5,451.6z"/>
	<path class="st2" d="M149.5,442.7h-2.8v0c-33.7-0.6-60.4-11.7-79.3-33.1c-20.6-23.4-28-54.9-30.6-77.2C34,308.2,36,289.2,36,289
		l0.1-0.8h23.7l86.9-4V284l1.8,0.1l1.8-0.1v0.2l86.9,4h23.7l0.1,0.8c0,0.2,2.1,19.1-0.7,43.3c-2.6,22.3-10.1,53.9-30.6,77.2
		c-18.9,21.4-45.5,32.5-79.3,33.1L149.5,442.7L149.5,442.7z M148.5,440.9h0.9c33.6-0.4,60.1-11.3,78.8-32.5
		c11.2-12.7,25.5-36.2,30.2-76.3c2.5-21.2,1.2-38.3,0.8-42.1h-22.1l-88.7-4.1h-0.1L59.8,290H37.7c-0.4,3.8-1.7,20.9,0.8,42.1
		c2.6,22.1,9.9,53.2,30.2,76.2c18.7,21.2,45.2,32.1,78.8,32.5L148.5,440.9L148.5,440.9z M229.5,72.1l-1.4-1.1l11.9-16.6l-7.8-8
		l-15.9,12.2l-1.1-1.5L232.4,44l9.9,10.2L229.5,72.1z M0,0"/>
	<path class="st1" d="M44.8,205.6H28.5v-90.9h16.9v0c6.7,1.3,10.2,24,10.2,45.4s-3.6,44.1-10.2,45.4v0h-0.2
		C45.1,205.6,44.9,205.6,44.8,205.6L44.8,205.6z M43.6,203.7l1.1,0.1h0.1c1.6,0,4.1-3.2,6.1-12.4c1.9-8.3,2.9-19.5,2.9-31.4
		c0-11.9-1-23-2.9-31.4c-2-9.1-4.5-12.4-6.1-12.4h-0.1l-1.1,0.1v-0.2H30.4v87.5L43.6,203.7L43.6,203.7L43.6,203.7z"/>
	<path class="st2" d="M29.5,205.6c-6.9,0-10.6-23.4-10.6-45.5s3.7-45.5,10.6-45.5c6.9,0,10.6,23.4,10.6,45.5S36.4,205.6,29.5,205.6z
		 M29.5,116.5c-1.6,0-4,3.2-6,12.4c-1.8,8.3-2.8,19.5-2.8,31.4s1,23,2.8,31.4c2,9.1,4.4,12.4,6,12.4s4-3.2,6-12.4
		c1.8-8.3,2.8-19.5,2.8-31.4c0-11.9-1-23-2.8-31.4C33.5,119.7,31.1,116.5,29.5,116.5L29.5,116.5z M0,0"/>
	<path class="st2" d="M15,155.3h22.3v1.9H15V155.3z M33.4,178.5l-17.9-15.3c-0.4-0.3-0.5-0.9-0.4-1.4c0.2-0.5,0.6-0.8,1.1-0.8h21.1
		v1.8H17.7l16.8,14.2L33.4,178.5L33.4,178.5z M0,0"/>
	<path class="st2" d="M265.6,205.6c-6.9,0-10.6-23.4-10.6-45.5s3.7-45.5,10.6-45.5c6.9,0,10.6,23.4,10.6,45.5
		S272.5,205.6,265.6,205.6z M265.6,116.5c-1.6,0-4,3.2-6,12.4c-1.8,8.3-2.8,19.5-2.8,31.4s1,23,2.8,31.4c2,9.1,4.4,12.4,6,12.4
		c1.6,0,4-3.2,6-12.4c1.8-8.3,2.8-19.5,2.8-31.4c0-11.9-1-23-2.8-31.4C269.6,119.7,267.2,116.5,265.6,116.5L265.6,116.5z M0,0 M0,0
		 M0,0"/>
	<path class="st2" d="M182.4,289.8H164v-17.4h18.4V289.8z M165.9,288.1h14.7v-13.9h-14.7V288.1z M0,0"/>
	<path class="st1" d="M151.1,241.4c-39.3,0-71.3-32.1-71.3-71.6c0-39.5,32-71.6,71.3-71.6c34.4,0,63.7,24.4,70,58.3h15.4v26.8h-15.4
		C214.8,217,185.5,241.4,151.1,241.4z M151.1,100c-38.3,0-69.5,31.3-69.5,69.8s31.2,69.8,69.5,69.8c33.7,0,62.5-24.2,68.4-57.5
		l0.1-0.8h15.2v-23.2h-15.2l-0.1-0.8C213.7,124.2,184.9,100,151.1,100z"/>
	<path class="st1" d="M236.6,158.2H223v-11.6c0-2.7,2-4.9,4.5-4.9h4.5c2.5,0,4.5,2.2,4.5,4.9L236.6,158.2L236.6,158.2z M224.8,156.3
		h10v-9.7c0-1.7-1.3-3-2.8-3h-4.5c-1.5,0-2.8,1.4-2.8,3L224.8,156.3L224.8,156.3z M232,196.9h-4.5c-2.5,0-4.5-2.2-4.5-4.9v-11.6
		h13.5v11.6C236.5,194.7,234.5,196.9,232,196.9z M224.8,182.3v9.7c0,1.7,1.3,3,2.8,3h4.5c1.5,0,2.8-1.4,2.8-3v-9.7L224.8,182.3
		L224.8,182.3z"/>
	<path class="st1" d="M242.3,183.4h-7.6v-27.1h7.6c5.9,0,10.7,4.9,10.7,10.9v5.3C253,178.5,248.2,183.4,242.3,183.4L242.3,183.4z
		 M236.4,181.6h5.9c4.9,0,9-4.1,9-9.1v-5.3c0-5-4-9.1-9-9.1h-5.9V181.6L236.4,181.6z"/>
	<path class="st1" d="M243.8,174.7c-2.4,0-4.4-2-4.4-4.4c0-2.4,2-4.4,4.4-4.4c2.4,0,4.4,2,4.4,4.4S246.2,174.7,243.8,174.7z
		 M243.8,167.7c-1.4,0-2.6,1.2-2.6,2.6s1.2,2.6,2.6,2.6c1.4,0,2.6-1.2,2.6-2.6C246.5,168.9,245.3,167.7,243.8,167.7z M150.5,231.8
		c-31.5,0-57.1-25.6-57.1-57.1c0-31.5,25.6-57.1,57.1-57.1c31.5,0,57.1,25.6,57.1,57.1C207.5,206.2,181.9,231.7,150.5,231.8
		L150.5,231.8z M150.5,119.3c-30.5,0-55.3,24.8-55.3,55.3c0,30.5,24.8,55.3,55.3,55.3c30.5,0,55.3-24.8,55.3-55.3
		C205.7,144.2,180.9,119.3,150.5,119.3z"/>
	<path class="st1" d="M150.5,226.9c-31.5,0-57.1-25.6-57.1-57.1c0-31.5,25.6-57.1,57.1-57.1c31.5,0,57.1,25.6,57.1,57.1
		C207.5,201.3,181.9,226.9,150.5,226.9z M150.5,114.6c-30.5,0-55.3,24.8-55.3,55.3c0,30.5,24.8,55.3,55.3,55.3
		c30.5,0,55.3-24.8,55.3-55.3C205.7,139.4,180.9,114.6,150.5,114.6z"/>
	<path class="st2" d="M149,219.2c-27.5,0-49.8-22.4-49.8-49.8s22.3-49.8,49.8-49.8s49.8,22.4,49.8,49.8
		C198.9,196.8,176.5,219.2,149,219.2L149,219.2z M149,121.3c-26.5,0-48.1,21.6-48.1,48.1c0,26.5,21.6,48.1,48.1,48.1
		s48.1-21.6,48.1-48.1C197.1,142.8,175.5,121.3,149,121.3z M0,0 M0,0"/>
	<path class="st1" d="M106.2,213.6c-0.5,0-1,0.4-1,1c0,0.5,0.4,1,1,1s1-0.4,1-1c0,0,0,0,0,0"/>
	<path class="st2" d="M0,0"/>
	<path class="st2" d="M0,0"/>
	<path class="st2" d="M107.6,124.6c0-0.5,0.4-1,1-1s1,0.4,1,1c0,0.5-0.4,1-1,1l0,0 M109.5,125.6c-4.1,0.4-4.5,1.3-0.8,1.9
		c3.7,0.6,10,0.8,14.1,0.3c4.1-0.4,4.5-1.3,0.8-1.9c-0.8-0.1-1.7-0.2-2.8-0.3 M0,0"/>
	<path class="st1" d="M236.9,128.2c-4.7,0-9.6-1.6-14.1-4.7c-6.5-4.5-11.5-11.5-14.2-20c-2.7-8.4-2.7-17.1,0-24.5
		c2.7-7.5,7.9-12.8,14.4-14.9l17.6-5.6l11.6,18.3c2.3,3.3,4.1,7.1,5.4,11c1.3,4,2,8.1,2,12.2l1.1,21.6l-17.6,5.6
		C241.1,127.9,239,128.2,236.9,128.2L236.9,128.2z M239.9,60.7l-16.3,5.2c-6,1.9-10.8,6.8-13.3,13.8c-2.6,7-2.6,15.3,0,23.3
		c2.6,8,7.4,14.8,13.5,19c6.1,4.2,12.8,5.5,18.8,3.6l16.3-5.2l-1-20.2c0-3.9-0.7-7.9-1.9-11.7c-1.2-3.8-3-7.4-5.2-10.6L239.9,60.7
		L239.9,60.7z"/>
	<path class="st2" d="M255.5,123.4c-11.8,0-23.8-9.9-28.5-24.6c-2.7-8.3-2.7-17,0-24.4c2.7-7.5,7.9-12.7,14.5-14.8
		c6.6-2.1,13.9-0.7,20.4,3.8c6.5,4.5,11.6,11.5,14.2,19.9c2.7,8.3,2.7,17,0,24.4c-2.7,7.5-7.9,12.7-14.5,14.8
		C259.6,123.1,257.6,123.4,255.5,123.4L255.5,123.4z M247.8,60.4c-1.9,0-3.9,0.3-5.7,0.9c-6.1,1.9-10.8,6.8-13.3,13.8
		c-2.6,7-2.6,15.3,0,23.3c4.5,14,15.7,23.4,26.8,23.4c1.9,0,3.8-0.3,5.7-0.9c6.1-1.9,10.8-6.8,13.4-13.8c2.6-7,2.6-15.3,0-23.3
		c-2.6-8-7.4-14.7-13.6-19C256.7,61.9,252.2,60.4,247.8,60.4L247.8,60.4z M0,0 M0,0 M0,0 M0,0"/>
	<path class="st1" d="M100.2,279.2h67.7v1.9h-67.7V279.2z"/>
	<path class="st1" d="M102.1,289.8h-6.8v-17.4h6.8V289.8z M97,288.1h3.4v-13.9H97V288.1z M77.5,216.3H53.7V80.8
		c0-13.5,3-25.2,8.9-34.8c4.7-7.7,11.2-14.1,19.5-18.9C96,19,109.7,18,110.3,18l1.5-0.1l-15,33L96.3,51c-8.5,2.4-14.3,7.8-17.2,16.1
		C77,73.3,77.5,79,77.5,79V216.3z M55.4,214.5h20.2V79.1c0-0.6-0.4-6.2,1.8-12.6c2.1-6.1,6.9-13.9,17.9-17.1l13.4-29.5
		c-3.9,0.5-15,2.4-26.1,8.8C74.8,33.4,68.5,39.6,64,47c-5.7,9.3-8.6,20.7-8.6,33.8L55.4,214.5L55.4,214.5L55.4,214.5z M158.1,29.5
		h-1.6c-2.2,0-4-1.9-4-4.1V7.5c0-2.3,1.8-4.1,4-4.1h1.6c2.2,0,4,1.9,4,4.1v17.9C162.1,27.7,160.3,29.5,158.1,29.5z M156.4,5.3
		c-1.2,0-2.2,1-2.2,2.3v17.9c0,1.2,1,2.3,2.2,2.3h1.6c1.2,0,2.2-1,2.2-2.3V7.5c0-1.2-1-2.3-2.2-2.3C158.1,5.3,156.4,5.3,156.4,5.3z"
		/>
	<path class="st1" d="M183.4,80.8h-68.7c-10.8,0-20-8-21.2-18.4h-0.1V38.2h111.3v21.9C204.7,71.5,195.1,80.8,183.4,80.8L183.4,80.8z
		 M95.2,60.7l0,0.8c0.7,9.9,9.3,17.6,19.5,17.6h68.7c10.8,0,19.5-8.5,19.5-19v-0.8l0-0.9h0V40H95.2V60.7z"/>
	<path class="st1" d="M187.7,62.4h-77.2c-9.4,0-17-7.5-17-16.6v-8.3c0-9.2,7.6-16.6,17-16.6h77.2c9.4,0,17,7.5,17,16.6v8.3
		C204.7,55,197,62.4,187.7,62.4L187.7,62.4z M110.4,22.5c-8.4,0-15.3,6.7-15.3,14.9v8.3c0,8.2,6.8,14.9,15.3,14.9h77.2
		c8.4,0,15.3-6.7,15.3-14.9v-8.3c0-8.2-6.8-14.9-15.3-14.9L110.4,22.5L110.4,22.5z"/>
	<path class="st1" d="M187.7,58.5h-77.2c-9.4,0-17-7.5-17-16.6v-8.3c0-9.2,7.6-16.6,17-16.6h77.2c9.4,0,17,7.5,17,16.6v8.3
		C204.7,51.1,197,58.5,187.7,58.5L187.7,58.5z M110.4,18.7c-8.4,0-15.3,6.7-15.3,14.9v8.3c0,8.2,6.8,14.9,15.3,14.9h77.2
		c8.4,0,15.3-6.7,15.3-14.9v-8.3c0-8.2-6.8-14.9-15.3-14.9L110.4,18.7L110.4,18.7z"/>
	<path class="st1" d="M151,53.7c-13,0-23.7-1.6-30.8-4.6c-8.5-3.6-10.3-8.4-10.3-11.8c0-3.4,1.8-8.2,10.3-11.8
		c7.1-3,17.8-4.6,30.8-4.6c13,0,23.7,1.6,30.8,4.6c8.5,3.6,10.3,8.4,10.3,11.8c0,3.4-1.8,8.2-10.3,11.8
		C174.6,52.1,164,53.7,151,53.7L151,53.7z M151,22.6c-29,0-39.4,7.6-39.4,14.7s10.3,14.7,39.4,14.7c29,0,39.4-7.6,39.4-14.7
		C190.4,30.2,180,22.6,151,22.6L151,22.6z"/>
	<path class="st1" d="M196.9,36.3h-1.8V34c-5.6-1.1-44.2-7.9-88.4,0v2.2H105v-3.6l0.7-0.1c48.2-8.8,90.1-0.1,90.5,0l0.7,0.1
		C196.9,32.6,196.9,36.3,196.9,36.3z"/>
	<path class="st2" d="M133.1,21.8h1.9v32.9h-1.9V21.8z M127.2,21.8h1.9v32.9h-1.9V21.8z M171.8,21.8h1.9v32.9h-1.9V21.8z M166,21.8
		h1.9v32.9H166V21.8z M148.8,74c-2.4,0-4.5-1.2-5.7-3.2l-5.2-8.5l1.5-0.9l5.2,8.5c0.9,1.5,2.6,2.4,4.3,2.4c1.8,0,3.4-1,4.2-2.6
		l4.5-8.3l1.5,0.8l-4.5,8.3c-1.2,2.1-3.3,3.4-5.7,3.5H148.8L148.8,74z M112.7,61.4h1.9v11.6h-1.9V61.4z M117.6,61.4h1.9v11.6h-1.9
		V61.4z M77.3,23.7L76,22.5c0.1-0.1,13-15.1,35.8-15.2v1.9C89.8,9.3,77.4,23.6,77.3,23.7z M77.9,16c0,0.5-0.4,1-1,1s-1-0.4-1-1
		s0.4-1,1-1S77.9,15.4,77.9,16 M83.7,13.1c0,0.5-0.4,1-1,1s-1-0.4-1-1s0.4-1,1-1S83.7,12.5,83.7,13.1 M86.5,10.8
		c0.2,0.5,0,1.1-0.5,1.3c-0.5,0.2-1.1,0-1.3-0.5c-0.2-0.5,0-1.1,0.5-1.3C85.8,10,86.3,10.3,86.5,10.8 M210.4,53.3
		c0.2,0.5,0,1.1-0.5,1.3c-0.5,0.2-1.1,0-1.3-0.5c-0.2-0.5,0-1.1,0.5-1.3C209.6,52.6,210.2,52.8,210.4,53.3 M210.4,60.1
		c0.2,0.5,0,1.1-0.5,1.3c-0.5,0.2-1.1,0-1.3-0.5c-0.2-0.5,0-1.1,0.5-1.3C209.6,59.4,210.2,59.6,210.4,60.1 M0,0 M0,0 M0,0 M0,0"/>
	<path class="st1" d="M81.8,235.6h6.8v1.9h-6.8V235.6z M45,268.5c-3.7,0-6.7-3.2-6.7-7.2v-0.1l1.7-17.9l-16.5,1.9
		c-3.7,0-6.6-3.2-6.6-7.2c0-4,3-7.2,6.6-7.2h0.1l16.4,1.9l-1.7-18c0-4,3-7.2,6.7-7.2s6.7,3.2,6.7,7.2v0.1l-1.7,17.9l16.5-1.9
		c3.7,0,6.7,3.2,6.7,7.2c0,4-3,7.2-6.7,7.2h-0.1l-16.4-1.9l1.7,18C51.6,265.3,48.6,268.5,45,268.5L45,268.5z M40.1,261.4
		c0,2.9,2.2,5.4,4.9,5.4c2.7,0,4.9-2.4,4.9-5.4l-1.7-18.2l-1.2-0.1l2.7-2.9l0.1,1.5l16.7,1.9c2.7,0,4.8-2.4,4.8-5.4
		s-2.2-5.4-4.8-5.4l-16.7,1.9l-0.1,1.4l-2.7-2.9l1.2-0.1l1.7-18.2c0-2.9-2.2-5.4-4.9-5.4c-2.7,0-4.9,2.4-4.9,5.4l1.7,18.2L43,233
		l-2.7,2.9l-0.1-1.4l-16.7-1.9c-2.7,0-4.8,2.4-4.8,5.4s2.2,5.4,4.8,5.4l16.7-1.9l0.1-1.4l2.7,2.9l-1.2,0.1
		C41.8,243.2,40.1,261.4,40.1,261.4z"/>
	<path class="st1" d="M45,252.1c-3.1,0-6.1-1.4-8.2-4c-4.5-5.3-4.5-13.8,0-19.1c2.2-2.6,5.1-4,8.2-4s6.1,1.4,8.2,4
		c4.5,5.3,4.5,13.8,0,19.1C51.1,250.6,48.1,252.1,45,252.1z M45,226.9c-2.6,0-5.1,1.2-6.9,3.4c-3.9,4.6-3.9,12,0,16.6
		c1.9,2.2,4.3,3.4,6.9,3.4c2.6,0,5.1-1.2,6.9-3.4c3.9-4.6,3.9-12,0-16.6C50.1,228,47.6,226.9,45,226.9z M36.3,228.8l16.5,17.4"/>
	<path class="st2" d="M36.6,230.2l1.3-1.2l15.3,16.9l-1.3,1.2L36.6,230.2z M52.7,228.8l-16.5,17.4 M0,0 M0,0 M0,0 M0,0"/>
	<path class="st1" d="M232.7,343h6.8v1.9h-6.8V343z M286.9,370.1c-0.2,0-0.4,0-0.6,0c-1.7-0.2-3.2-1.1-4.1-2.6l0-0.1l-7.9-15.3
		l-11.8,13.9c-1.4,1.4-3.2,2.1-5,1.9c-1.7-0.2-3.2-1.1-4.1-2.6c-2-3.1-1.4-7.8,1.4-10.5l0,0l14-11.1l-10.8-13.1
		c-2-3.1-1.4-7.8,1.4-10.5c1.4-1.4,3.2-2.1,5-1.9c1.7,0.2,3.2,1.1,4.1,2.6l0,0.1l7.9,15.3l11.8-13.9c1.4-1.4,3.2-2.1,5-1.9
		c1.7,0.2,3.2,1.1,4.1,2.6c2,3.1,1.4,7.8-1.4,10.5l0,0l-14,11.1l10.8,13.1c2,3.1,1.4,7.8-1.4,10.5
		C290.1,369.5,288.5,370.1,286.9,370.1L286.9,370.1z M283.7,366.6c0.7,1,1.7,1.7,2.8,1.8c1.3,0.1,2.5-0.3,3.6-1.4
		c2.2-2.1,2.7-5.8,1.1-8.2l-10.7-13l-1.2,0.9l0.6-4.5l0.8,1l13.9-11.1c2.1-2.1,2.6-5.9,1.1-8.2c-0.7-1-1.7-1.7-2.8-1.8
		c-1.2-0.1-2.5,0.3-3.5,1.4l-12.2,14.3l0.5,1l-3.5-0.3l0.8-1l-8.1-15.9c-0.7-1-1.7-1.7-2.8-1.8c-1.3-0.1-2.5,0.3-3.6,1.4
		c-2.2,2.1-2.7,5.8-1.1,8.2l10.7,13l1.2-0.9l-0.6,4.5l-0.8-1L255.9,356c-2.1,2.1-2.6,5.9-1.1,8.2c0.7,1,1.7,1.7,2.8,1.8
		c1.2,0.1,2.5-0.3,3.5-1.4l12.2-14.3l-0.5-1l3.5,0.3l-0.8,1L283.7,366.6z"/>
	<path class="st1" d="M272.4,358.5c-0.2,0-0.5,0-0.8,0c-2.7-0.2-5.2-1.6-7-3.9c-2.3-2.9-3.3-6.9-2.7-11.1c1-7.7,6.9-13.5,13.2-13
		c2.7,0.2,5.2,1.6,7,3.9c2.3,2.9,3.3,6.9,2.7,11.1C283.9,352.8,278.4,358.5,272.4,358.5L272.4,358.5z M274.4,332.3
		c-5.1,0-9.8,5-10.6,11.4c-0.5,3.7,0.4,7.2,2.3,9.7c1.5,1.9,3.5,3,5.7,3.2c5.3,0.4,10.4-4.7,11.3-11.4c0.5-3.7-0.4-7.2-2.3-9.7
		c-1.5-1.9-3.5-3-5.7-3.2L274.4,332.3L274.4,332.3z M284,345.9l-20.3-1.9"/>
	<path class="st1" d="M263.3,344l0.1-1.8l20.7,1.6l-0.1,1.8L263.3,344z M275.3,331.4l-2.9,26.1"/>
	<path class="st1" d="M271.1,356.3l3.3-25l1.8,0.2l-3.3,25L271.1,356.3z M56.4,126.3c-1,0-1.6-0.1-1.7-0.1l0.3-1.8
		c0,0,5,0.8,9.1-2.7c3.8-3.3,5.8-9.2,5.8-17.5V77.9c0-0.4,0-9.2,3.1-18.2c4.2-12.1,11.9-18.6,22.4-18.6v1.8
		c-9.8,0-16.7,5.8-20.7,17.3c-3,8.7-3.1,17.6-3.1,17.7v26.2c0,8.9-2.1,15.2-6.4,18.9C62,125.8,58.4,126.3,56.4,126.3z M59,160.1
		h-2.8c-3.5,0-6.3-2.5-6.3-5.6v-19.7c0-3.1,2.9-5.6,6.3-5.6H59c3.5,0,6.3,2.5,6.3,5.6v19.7C65.3,157.7,62.5,160.1,59,160.1z
		 M56.1,130.9c-2.4,0-4.4,1.8-4.4,3.9v19.7c0,2.1,2,3.9,4.4,3.9h2.8c2.4,0,4.4-1.8,4.4-3.9v-19.7c0-2.1-2-3.9-4.4-3.9L56.1,130.9
		L56.1,130.9z"/>
	<path class="st2" d="M55.1,160.1h-2.8c-3.5,0-6.3-2.5-6.3-5.6v-19.7c0-3.1,2.9-5.6,6.3-5.6h2.8c3.5,0,6.3,2.5,6.3,5.6v19.7
		C61.4,157.7,58.6,160.1,55.1,160.1z M52.2,130.9c-2.4,0-4.4,1.8-4.4,3.9v19.7c0,2.1,2,3.9,4.4,3.9h2.8c2.4,0,4.4-1.8,4.4-3.9v-19.7
		c0-2.1-2-3.9-4.4-3.9L52.2,130.9L52.2,130.9z M0,0"/>
	<path class="st2" d="M67.2,428.2H43.1c-3.2,0-5.9-2.8-5.9-6.1v-4.2c0-3.4,2.6-6.1,5.9-6.1h24.1c3.2,0,5.9,2.8,5.9,6.1v4.2
		C73.1,425.4,70.5,428.2,67.2,428.2z M43.1,413.6c-2.2,0-4.1,1.9-4.1,4.2v4.2c0,2.3,1.8,4.2,4.1,4.2h24.1c2.2,0,4.1-1.9,4.1-4.2
		v-4.2c0-2.3-1.8-4.2-4.1-4.2H43.1z M0,0 M0,0"/>
	<path class="st1" d="M77.9,184.3c-6.4,0-11.6-5.2-11.6-11.6s5.2-11.6,11.6-11.6c6.4,0,11.6,5.2,11.6,11.6
		C89.5,179.1,84.3,184.3,77.9,184.3L77.9,184.3z M77.9,162.9c-5.4,0-9.9,4.4-9.9,9.9c0,5.4,4.4,9.9,9.9,9.9s9.9-4.4,9.9-9.9
		C87.8,167.3,83.3,162.9,77.9,162.9z"/>
	<path class="st2" d="M92.3,176.6H61.5c-1.6,0-3-1.3-3-2.9v-1.1c0-1.6,1.4-2.9,3-2.9h30.8c1.6,0,3,1.3,3,2.9v1.1
		C95.3,175.3,94,176.6,92.3,176.6z M61.6,171.6c-0.7,0-1.2,0.5-1.2,1.2v1.1c0,0.6,0.6,1.2,1.2,1.2h30.7c0.7,0,1.2-0.5,1.2-1.2v-1.1
		c0-0.6-0.6-1.2-1.2-1.2C92.3,171.6,61.6,171.6,61.6,171.6z M0,0"/>
	<path class="st1" d="M147.1,483.3c-8.3,0-15-6.8-15-15c0-8.3,6.8-15,15-15c8.2,0,15,6.8,15,15C162.1,476.6,155.4,483.3,147.1,483.3
		L147.1,483.3z M147.1,455.1c-7.3,0-13.2,6-13.2,13.2c0,7.3,6,13.2,13.2,13.2s13.2-6,13.2-13.2C160.3,461,154.4,455.1,147.1,455.1
		L147.1,455.1z"/>
	<path class="st1" d="M168.8,472.7h-42.4c-1.6,0-3-1.3-3-2.9v-2.8c0-1.6,1.4-2.9,3-2.9h42.4c1.6,0,3,1.3,3,2.9v2.8
		C171.8,471.4,170.4,472.7,168.8,472.7L168.8,472.7z M126.3,465.7c-0.7,0-1.2,0.5-1.2,1.2v2.8c0,0.6,0.6,1.2,1.2,1.2h42.4
		c0.7,0,1.2-0.5,1.2-1.2v-2.8c0-0.6-0.6-1.2-1.2-1.2H126.3L126.3,465.7z"/>
	<path class="st1" d="M148,475.6c-5.1,0-9.2-3.9-9.2-8.7c0-4.8,4.1-8.7,9.2-8.7s9.2,3.9,9.2,8.7S153.1,475.6,148,475.6z M148,459.9
		c-4,0-7.4,3.1-7.4,7c0,3.8,3.3,7,7.4,7c4.1,0,7.4-3.1,7.4-7C155.4,463.1,152.1,459.9,148,459.9L148,459.9z M215.8,266.6
		c-7.7,0-14-6.5-14-14.5c0-8,6.3-14.5,14-14.5c7.7,0,14,6.5,14,14.5C229.8,260.1,223.5,266.6,215.8,266.6z M215.8,239.4
		c-6.8,0-12.2,5.7-12.2,12.7c0,7,5.5,12.7,12.2,12.7c6.8,0,12.2-5.7,12.2-12.7C228,245.1,222.5,239.4,215.8,239.4z"/>
	<path class="st1" d="M221.6,266.6c-7.7,0-14-6.5-14-14.5c0-8,6.3-14.5,14-14.5s14,6.5,14,14.5C235.6,260.1,229.3,266.6,221.6,266.6
		z M221.6,239.4c-6.8,0-12.2,5.7-12.2,12.7c0,7,5.5,12.7,12.2,12.7s12.2-5.7,12.2-12.7C233.8,245.1,228.3,239.4,221.6,239.4
		L221.6,239.4z"/>
	<path class="st1" d="M238.4,259.8h-18c-3.8,0-6.9-3.2-6.9-7.1v-3.3c0-3.9,3.1-7.1,6.9-7.1h18c3.8,0,6.9,3.2,6.9,7.1v3.3
		C245.3,256.6,242.2,259.8,238.4,259.8L238.4,259.8z M220.3,244.1c-2.9,0-5.2,2.4-5.2,5.3v3.3c0,2.9,2.3,5.3,5.2,5.3h18
		c2.9,0,5.2-2.4,5.2-5.3v-3.3c0-2.9-2.3-5.3-5.2-5.3H220.3z"/>
	<path class="st1" d="M237.1,259.8c-5.1,0-9.2-3.9-9.2-8.7c0-4.8,4.1-8.7,9.2-8.7c5.1,0,9.2,3.9,9.2,8.7
		C246.3,255.9,242.1,259.8,237.1,259.8L237.1,259.8z M237.1,244.2c-4,0-7.3,3.1-7.3,6.9c0,3.8,3.3,6.9,7.3,6.9c4,0,7.3-3.1,7.3-6.9
		C244.4,247.2,241.1,244.2,237.1,244.2z M218.1,250.7c0.2,0.5,0,1.1-0.5,1.3c-0.5,0.2-1.1,0-1.3-0.5c-0.2-0.5,0-1.1,0.5-1.3
		C217.4,250,217.9,250.2,218.1,250.7"/>
	<path class="st1" d="M214.3,255.9h16.4v1.9h-16.4V255.9z M82.3,356.6c-9.9,0-17.9-8-17.9-17.9c0-9.9,8-17.9,17.9-17.9
		s17.9,8,17.9,17.9C100.2,348.5,92.1,356.6,82.3,356.6z M82.3,322.5c-8.9,0-16.1,7.2-16.1,16.1s7.2,16.1,16.1,16.1
		s16.1-7.2,16.1-16.1C98.4,329.8,91.2,322.5,82.3,322.5L82.3,322.5z"/>
	<path class="st1" d="M75.5,356.6c-9.9,0-17.9-8-17.9-17.9c0-9.9,8-17.9,17.9-17.9c9.9,0,17.9,8,17.9,17.9
		C93.4,348.5,85.4,356.6,75.5,356.6z M75.5,322.5c-8.9,0-16.1,7.2-16.1,16.1s7.2,16.1,16.1,16.1c8.9,0,16.1-7.2,16.1-16.1
		C91.6,329.8,84.4,322.5,75.5,322.5z"/>
	<path class="st1" d="M77.4,349.8H62.9c-4,0-7.3-3.2-7.3-7.1v-8.1c0-3.9,3.3-7.1,7.3-7.1h14.5c4,0,7.3,3.2,7.3,7.1v8.1
		C84.7,346.6,81.4,349.8,77.4,349.8z M62.9,329.3c-3,0-5.5,2.4-5.5,5.3v8.1c0,2.9,2.5,5.3,5.5,5.3h14.5c3,0,5.5-2.4,5.5-5.3v-8.1
		c0-2.9-2.5-5.3-5.5-5.3C77.4,329.3,62.9,329.3,62.9,329.3z M271.4,404c-6.4,0-11.6-5.2-11.6-11.6s5.2-11.6,11.6-11.6
		S283,386,283,392.4C283,398.8,277.8,404,271.4,404z M271.4,382.5c-5.5,0-9.9,4.4-9.9,9.9c0,5.5,4.4,9.9,9.9,9.9
		c5.5,0,9.9-4.4,9.9-9.9S276.8,382.5,271.4,382.5z"/>
	<path class="st2" d="M275.3,404c-6.4,0-11.6-5.2-11.6-11.6s5.2-11.6,11.6-11.6s11.6,5.2,11.6,11.6C286.9,398.8,281.7,404,275.3,404
		z M275.3,382.5c-5.5,0-9.9,4.4-9.9,9.9c0,5.5,4.4,9.9,9.9,9.9c5.4,0,9.9-4.4,9.9-9.9S280.7,382.5,275.3,382.5z M0,0"/>
	<path class="st1" d="M84.6,81.7l1.3-1.3l6.7,6.7l-1.3,1.3L84.6,81.7z M99.7,97.2c-1.8,0-3.4-1.5-3.4-3.4s1.5-3.4,3.4-3.4
		c1.8,0,3.4,1.5,3.4,3.4S101.6,97.2,99.7,97.2z M99.7,92.4c-0.8,0-1.5,0.7-1.5,1.5s0.7,1.5,1.5,1.5c0.8,0,1.5-0.7,1.5-1.5
		C101.2,93,100.5,92.4,99.7,92.4z M157.5,272.4l-1.3-1.2l22.2-21.5c6.8-6.6,15.8-10.2,25.4-10.2h11.4v1.7h-11.4
		c-9.1,0-17.7,3.4-24.1,9.7L157.5,272.4L157.5,272.4z"/>
	<path class="st1" d="M152.7,272.4l-1.3-1.2l22.2-21.5c6.8-6.6,15.8-10.2,25.4-10.2h11.4v1.7H199c-9.1,0-17.7,3.4-24.1,9.7
		L152.7,272.4L152.7,272.4z M213.4,265.6h1.9v6.8h-1.9V265.6z M72.1,258.8H74v16.5h-1.9V258.8z M124.3,273.4h-1.7V259
		c0-7.6-5.9-13.8-13.3-13.8s-13.3,6.2-13.3,13.8v14.4h-1.7V259c0-8.6,6.7-15.6,15-15.6s15,7,15,15.6V273.4z"/>
	<path class="st1" d="M121.4,273.4h-1.7V259c0-7.6-5.9-13.8-13.3-13.8s-13.3,6.2-13.3,13.8v14.4h-1.7V259c0-8.6,6.7-15.6,15-15.6
		s15,7,15,15.6V273.4z"/>
	<path class="st1" d="M104.5,266.6c-5.1,0-9.2-3.9-9.2-8.7c0-4.8,4.1-8.7,9.2-8.7s9.2,3.9,9.2,8.7
		C113.6,262.7,109.5,266.6,104.5,266.6L104.5,266.6z M104.5,251c-4.1,0-7.4,3.1-7.4,7s3.3,7,7.4,7s7.4-3.1,7.4-7
		C111.8,254.1,108.5,251,104.5,251L104.5,251z"/>
	<path class="st1" d="M98.9,252.8l1.3-1.3l11.3,11.3l-1.3,1.3L98.9,252.8z"/>
	<path class="st2" d="M0,0"/>
	<path class="st1" d="M244,301.6l1.3-1.3l8.4,8.4l-1.3,1.3L244,301.6z"/>
	<path class="st1" d="M244,308.7l8.4-8.4l1.3,1.3l-8.4,8.4L244,308.7z M147.1,361.4c-5.1,0-9.2-3.9-9.2-8.7c0-4.8,4.1-8.7,9.2-8.7
		c5.1,0,9.2,3.9,9.2,8.7S152.2,361.4,147.1,361.4L147.1,361.4z M147.1,345.8c-4.1,0-7.4,3.1-7.4,7s3.3,7,7.4,7s7.4-3.1,7.4-7
		S151.1,345.8,147.1,345.8L147.1,345.8z"/>
	<path class="st1" d="M140.3,347.4l1.3-1.3l11.3,11.3l-1.3,1.3L140.3,347.4z"/>
	<path class="st2" d="M0,0"/>
	<path class="st2" d="M0,0"/>
	<path class="st2" d="M0,0"/>
	<path class="st2" d="M146.1,323.7l-0.2-0.1L29.5,287.9h235.1L146.1,323.7L146.1,323.7z M41.4,289.7l104.8,32.1l106.4-32.2
		L41.4,289.7L41.4,289.7L41.4,289.7z M0,0 M0,0"/>
</g>
</svg>
